<?xml version="1.0" encoding="UTF-8"?>
<svg version="1.1" xmlns="http://www.w3.org/2000/svg" width="320" height="183">
<path d="M0 0 C5.10200122 3.66269982 8.52204747 8.1498053 9.85546875 14.33203125 C10.28086239 17.66011093 10.60422474 20.98651897 10.85546875 24.33203125 C11.59796875 23.38328125 12.34046875 22.43453125 13.10546875 21.45703125 C15.10456576 18.90262951 16.80413487 17.49208792 19.85546875 16.33203125 C22.4765625 16.03125 22.4765625 16.03125 25.29296875 16.01953125 C26.68322266 15.99439453 26.68322266 15.99439453 28.1015625 15.96875 C31.51828273 16.41946629 33.20555382 17.10735605 35.85546875 19.33203125 C36.94922061 21.86337023 37.72446411 24.07183731 38.41796875 26.70703125 C38.82923481 28.1458883 39.24069615 29.58468956 39.65234375 31.0234375 C39.85150391 31.74418457 40.05066406 32.46493164 40.25585938 33.20751953 C41.15076961 36.37832931 42.16538166 39.50615123 43.16796875 42.64453125 C44.16169788 45.77497439 44.85546875 48.04504631 44.85546875 51.33203125 C45.51546875 51.33203125 46.17546875 51.33203125 46.85546875 51.33203125 C46.9534375 50.5534375 47.05140625 49.77484375 47.15234375 48.97265625 C48.1602106 41.43103189 49.43835077 33.98183602 50.91796875 26.51953125 C51.09231445 25.62975586 51.26666016 24.73998047 51.44628906 23.82324219 C51.61354492 22.99469727 51.78080078 22.16615234 51.953125 21.3125 C52.10273682 20.56895264 52.25234863 19.82540527 52.40649414 19.05932617 C52.85546875 17.33203125 52.85546875 17.33203125 53.85546875 16.33203125 C56.35562167 16.21851801 58.82704493 16.16784758 61.328125 16.1640625 C62.08459824 16.1607341 62.84107147 16.1574057 63.62046814 16.15397644 C65.22866202 16.14890047 66.83686648 16.14656832 68.44506836 16.14672852 C70.88348361 16.14456189 73.32143173 16.12646943 75.75976562 16.10742188 C77.32421721 16.10448395 78.88867094 16.10250183 80.453125 16.1015625 C81.17427994 16.09437698 81.89543488 16.08719147 82.63844299 16.07978821 C87.67145469 16.10200781 92.04095581 16.82045562 96.85546875 18.33203125 C99.58022145 23.78153666 97.84282853 31.51926457 96.87890625 37.32421875 C95.23411283 40.55102721 93.1680433 42.09447469 89.85546875 43.33203125 C85.40022108 43.95257033 80.97405085 44.02847827 76.48046875 44.08203125 C74.66095703 44.12650391 74.66095703 44.12650391 72.8046875 44.171875 C69.82196899 44.24233292 66.83871579 44.28947423 63.85546875 44.33203125 C62.86546875 48.62203125 61.87546875 52.91203125 60.85546875 57.33203125 C56.92234976 57.40094378 52.9907706 57.46066032 49.05737305 57.49682617 C47.06219174 57.51931458 45.06720662 57.55743323 43.07226562 57.59570312 C41.81865234 57.60537109 40.56503906 57.61503906 39.2734375 57.625 C38.11610107 57.64071045 36.95876465 57.6564209 35.76635742 57.67260742 C32.85546875 57.33203125 32.85546875 57.33203125 31.0168457 56.1262207 C29.85546875 54.33203125 29.85546875 54.33203125 28.85546875 49.33203125 C23.57546875 49.33203125 18.29546875 49.33203125 12.85546875 49.33203125 C12.85546875 45.50790456 14.00202724 43.8152464 16.2109375 40.78515625 C18.28544083 38.95210342 19.43255856 38.87509672 22.16796875 38.89453125 C23.38484375 39.03890625 24.60171875 39.18328125 25.85546875 39.33203125 C24.86546875 36.69203125 23.87546875 34.05203125 22.85546875 31.33203125 C19.36609197 35.41429328 16.18705127 39.58091419 13.16796875 44.01953125 C12.58305664 44.8712793 12.58305664 44.8712793 11.98632812 45.74023438 C10.25857683 48.2595025 8.5499803 50.79026393 6.85546875 53.33203125 C6.19546875 53.33203125 5.53546875 53.33203125 4.85546875 53.33203125 C4.52546875 54.32203125 4.19546875 55.31203125 3.85546875 56.33203125 C0.39046875 56.82703125 0.39046875 56.82703125 -3.14453125 57.33203125 C-3.51964844 58.42257813 -3.51964844 58.42257813 -3.90234375 59.53515625 C-8.83141101 70.6333077 -21.36655706 79.34465267 -32.01953125 84.39453125 C-39.30469053 87.14797728 -47.17795555 87.82579524 -54.703125 85.5625 C-60.473249 82.90506674 -63.06796563 79.15957168 -65.33203125 73.26953125 C-68.68901286 63.53428458 -67.65228785 53.95422595 -64.14453125 44.33203125 C-63.15453125 43.83703125 -63.15453125 43.83703125 -62.14453125 43.33203125 C-62.1909375 44.46640625 -62.23734375 45.60078125 -62.28515625 46.76953125 C-62.5687996 56.57315827 -62.58618133 62.94821297 -56.08203125 70.83203125 C-51.40686639 73.21934948 -47.27650456 73.20709849 -42.14453125 72.33203125 C-34.31241207 69.42874569 -26.85104759 65.39180576 -22.14453125 58.33203125 C-23.65019653 58.31015747 -23.65019653 58.31015747 -25.1862793 58.2878418 C-28.92328875 58.22971073 -32.65970494 58.1524796 -36.39624023 58.06958008 C-38.01105088 58.03640015 -39.62597556 58.00834667 -41.2409668 57.9855957 C-43.56738717 57.951921 -45.89276908 57.89960162 -48.21875 57.84375 C-48.93665207 57.83736008 -49.65455414 57.83097015 -50.39421082 57.8243866 C-54.77241761 57.69700255 -57.69141887 57.08705629 -61.14453125 54.33203125 C-61.95703125 51.58203125 -61.95703125 51.58203125 -61.14453125 48.33203125 C-58.86674529 45.52970782 -56.01626599 43.49766638 -53.14453125 41.33203125 C-52.50128906 40.8426709 -51.85804687 40.35331055 -51.1953125 39.84912109 C-46.53695402 36.30762315 -41.84532823 32.81845568 -37.14453125 29.33203125 C-43.74453125 29.00203125 -50.34453125 28.67203125 -57.14453125 28.33203125 C-56.16708591 23.44480455 -55.06624627 21.22765127 -52.14453125 17.33203125 C-47.67847516 15.09900321 -41.56592315 16.14618724 -36.59643555 16.14672852 C-34.35120471 16.14454985 -32.10647149 16.12641298 -29.86132812 16.10742188 C-28.42838709 16.10448624 -26.99544373 16.10250258 -25.5625 16.1015625 C-24.26078857 16.09745361 -22.95907715 16.09334473 -21.61791992 16.08911133 C-17.15504535 16.40123336 -14.32340422 17.15315828 -11.14453125 20.33203125 C-11.01953125 23.58203125 -11.01953125 23.58203125 -12.14453125 27.33203125 C-13.80411403 29.04260679 -15.57076927 30.2626618 -17.55078125 31.58984375 C-20.78075531 33.75937452 -23.82535883 36.1304301 -26.89453125 38.51953125 C-30.29505017 41.14599248 -33.70699173 43.75387661 -37.14453125 46.33203125 C-29.22453125 46.33203125 -21.30453125 46.33203125 -13.14453125 46.33203125 C-5.92187054 32.58568417 -5.92187054 32.58568417 -5.14453125 17.33203125 C-6.48742006 13.16544652 -8.11184179 10.17448844 -11.51953125 7.39453125 C-18.49637113 4.57057225 -23.28944673 5.75719463 -30.14453125 8.33203125 C-32.15177705 9.31740646 -34.15433378 10.31266182 -36.14453125 11.33203125 C-37.13453125 11.33203125 -38.12453125 11.33203125 -39.14453125 11.33203125 C-37.25289104 5.65711063 -30.23048005 3.06579992 -25.14453125 0.33203125 C-16.7806244 -3.25418551 -8.18275478 -4.62219482 0 0 Z M65.85546875 28.33203125 C65.85546875 29.98203125 65.85546875 31.63203125 65.85546875 33.33203125 C71.13546875 33.33203125 76.41546875 33.33203125 81.85546875 33.33203125 C82.18546875 31.35203125 82.51546875 29.37203125 82.85546875 27.33203125 C80.20956861 27.30518446 77.56393779 27.28526768 74.91796875 27.26953125 C73.78584961 27.25696289 73.78584961 27.25696289 72.63085938 27.24414062 C68.94355111 26.86677525 68.94355111 26.86677525 65.85546875 28.33203125 Z " fill="#83B95C" transform="translate(143.14453125,27.66796875)"/>
<path d="M0 0 C0.94488281 -0.02578125 1.88976562 -0.0515625 2.86328125 -0.078125 C6.33991067 0.32579875 8.00387397 0.98483769 10.6875 3.25 C11.78125186 5.78133898 12.55649536 7.98980606 13.25 10.625 C13.66126606 12.06385705 14.0727274 13.50265831 14.484375 14.94140625 C14.68353516 15.66215332 14.88269531 16.38290039 15.08789062 17.12548828 C15.98280086 20.29629806 16.99741291 23.42411998 18 26.5625 C18.99372913 29.69294314 19.6875 31.96301506 19.6875 35.25 C20.3475 35.25 21.0075 35.25 21.6875 35.25 C21.78546875 34.47140625 21.8834375 33.6928125 21.984375 32.890625 C22.99224185 25.34900064 24.27038202 17.89980477 25.75 10.4375 C26.01151855 9.10283691 26.01151855 9.10283691 26.27832031 7.74121094 C26.44557617 6.91266602 26.61283203 6.08412109 26.78515625 5.23046875 C26.93476807 4.48692139 27.08437988 3.74337402 27.23852539 2.97729492 C27.6875 1.25 27.6875 1.25 28.6875 0.25 C31.18765292 0.13648676 33.65907618 0.08581633 36.16015625 0.08203125 C36.91662949 0.07870285 37.67310272 0.07537445 38.45249939 0.07194519 C40.06069327 0.06686922 41.66889773 0.06453707 43.27709961 0.06469727 C45.71551486 0.06253064 48.15346298 0.04443818 50.59179688 0.02539062 C52.15624846 0.0224527 53.72070219 0.02047058 55.28515625 0.01953125 C56.00631119 0.01234573 56.72746613 0.00516022 57.47047424 -0.00224304 C62.50348594 0.01997656 66.87298706 0.73842437 71.6875 2.25 C74.4122527 7.69950541 72.67485978 15.43723332 71.7109375 21.2421875 C70.06614408 24.46899596 68.00007455 26.01244344 64.6875 27.25 C60.23225233 27.87053908 55.8060821 27.94644702 51.3125 28 C49.49298828 28.04447266 49.49298828 28.04447266 47.63671875 28.08984375 C44.65400024 28.16030167 41.67074704 28.20744298 38.6875 28.25 C37.6975 32.54 36.7075 36.83 35.6875 41.25 C31.75438101 41.31891253 27.82280185 41.37862907 23.8894043 41.41479492 C21.89422299 41.43728333 19.89923787 41.47540198 17.90429688 41.51367188 C16.65068359 41.52333984 15.39707031 41.53300781 14.10546875 41.54296875 C12.94813232 41.5586792 11.7907959 41.57438965 10.59838867 41.59057617 C7.6875 41.25 7.6875 41.25 5.84887695 40.04418945 C4.6875 38.25 4.6875 38.25 3.6875 33.25 C-1.5925 33.25 -6.8725 33.25 -12.3125 33.25 C-12.3125 29.42587331 -11.16594151 27.73321515 -8.95703125 24.703125 C-6.88252792 22.87007217 -5.73541019 22.79306547 -3 22.8125 C-1.783125 22.956875 -0.56625 23.10125 0.6875 23.25 C-0.3025 20.61 -1.2925 17.97 -2.3125 15.25 C-5.80187678 19.33226203 -8.98091748 23.49888294 -12 27.9375 C-12.38994141 28.50533203 -12.77988281 29.07316406 -13.18164062 29.65820312 C-14.90939192 32.17747125 -16.61798845 34.70823268 -18.3125 37.25 C-18.9725 37.25 -19.6325 37.25 -20.3125 37.25 C-20.6425 38.24 -20.9725 39.23 -21.3125 40.25 C-24.73939636 41.39229879 -26.92352218 41.15861076 -30.5 40.8125 C-31.58667969 40.71066406 -32.67335937 40.60882813 -33.79296875 40.50390625 C-34.62441406 40.42011719 -35.45585937 40.33632812 -36.3125 40.25 C-35.73011617 36.32800886 -33.84221611 34.16957854 -31.3125 31.1875 C-30.50296875 30.21941406 -29.6934375 29.25132813 -28.859375 28.25390625 C-27.20457459 26.30215545 -25.54840115 24.35156765 -23.890625 22.40234375 C-19.78082525 17.49954572 -16.36983747 12.80835344 -13.43359375 7.12890625 C-10.23052334 1.76069417 -5.89634538 0.0957458 0 0 Z M40.6875 12.25 C40.6875 13.9 40.6875 15.55 40.6875 17.25 C45.9675 17.25 51.2475 17.25 56.6875 17.25 C57.0175 15.27 57.3475 13.29 57.6875 11.25 C55.04159986 11.22315321 52.39596904 11.20323643 49.75 11.1875 C48.61788086 11.17493164 48.61788086 11.17493164 47.46289062 11.16210938 C43.77558236 10.784744 43.77558236 10.784744 40.6875 12.25 Z " fill="#F5F6F6" transform="translate(168.3125,43.75)"/>
<path d="M0 0 C2.24523084 -0.00217866 4.48996406 -0.02031553 6.73510742 -0.03930664 C8.16804845 -0.04224228 9.60099182 -0.04422593 11.03393555 -0.04516602 C12.33564697 -0.0492749 13.6373584 -0.05338379 14.97851562 -0.05761719 C19.4413902 0.25450485 22.27303132 1.00642976 25.4519043 4.18530273 C25.5769043 7.43530273 25.5769043 7.43530273 24.4519043 11.18530273 C22.79232152 12.89587828 21.02566628 14.11593329 19.0456543 15.44311523 C15.81568024 17.612646 12.77107672 19.98370158 9.7019043 22.37280273 C6.30138537 24.99926396 2.88944382 27.60714809 -0.5480957 30.18530273 C7.7019043 30.51530273 15.9519043 30.84530273 24.4519043 31.18530273 C19.4519043 40.18530273 19.4519043 40.18530273 17.4519043 41.18530273 C14.73893825 41.30864486 12.05266215 41.37370284 9.33862305 41.38842773 C8.53205765 41.39412781 7.72549225 41.39982788 6.89448547 41.40570068 C5.18552972 41.41515469 3.47655569 41.42168625 1.76757812 41.42553711 C-0.83992611 41.43522593 -3.44663648 41.46623773 -6.05395508 41.49780273 C-7.71475769 41.50433458 -9.37556594 41.50958434 -11.03637695 41.51342773 C-12.2022509 41.53194794 -12.2022509 41.53194794 -13.39167786 41.55084229 C-17.93799923 41.53225213 -20.98294433 41.10157845 -24.5480957 38.18530273 C-25.3605957 35.43530273 -25.3605957 35.43530273 -24.5480957 32.18530273 C-22.27030974 29.38297931 -19.41983044 27.35093786 -16.5480957 25.18530273 C-15.58323242 24.45126221 -15.58323242 24.45126221 -14.59887695 23.70239258 C-9.94051847 20.16089464 -5.24889269 16.67172716 -0.5480957 13.18530273 C-7.1480957 12.85530273 -13.7480957 12.52530273 -20.5480957 12.18530273 C-19.57065036 7.29807603 -18.46981072 5.08092276 -15.5480957 1.18530273 C-11.08203962 -1.04772531 -4.9694876 -0.00054128 0 0 Z " fill="#F6F6F6" transform="translate(106.548095703125,43.814697265625)"/>
<path d="M0 0 C18.81 0 37.62 0 57 0 C56 6 56 6 55 7 C53.31391034 7.07205511 51.62499341 7.08386068 49.9375 7.0625 C49.01839844 7.05347656 48.09929687 7.04445313 47.15234375 7.03515625 C46.44207031 7.02355469 45.73179687 7.01195313 45 7 C44.81824219 8.32064453 44.81824219 8.32064453 44.6328125 9.66796875 C44.46523437 10.82941406 44.29765625 11.99085937 44.125 13.1875 C43.96257812 14.33605469 43.80015625 15.48460938 43.6328125 16.66796875 C43.05939755 19.68724625 42.25240957 22.20575848 41 25 C38.69 25 36.38 25 34 25 C32.70867215 21.12601645 33.58886428 18.18011214 34.4375 14.3125 C34.58509766 13.61060547 34.73269531 12.90871094 34.88476562 12.18554688 C35.2495932 10.45555806 35.62388689 8.72757037 36 7 C35.25838623 7.00523682 34.51677246 7.01047363 33.75268555 7.01586914 C30.39763229 7.03663614 27.04259256 7.0496593 23.6875 7.0625 C22.52025391 7.07087891 21.35300781 7.07925781 20.15039062 7.08789062 C18.47299805 7.09272461 18.47299805 7.09272461 16.76171875 7.09765625 C15.2142395 7.10551147 15.2142395 7.10551147 13.63549805 7.11352539 C11 7 11 7 8 6 C8 6.66 8 7.32 8 8 C8.77085937 7.98839844 9.54171875 7.97679688 10.3359375 7.96484375 C11.33882812 7.95582031 12.34171875 7.94679688 13.375 7.9375 C14.37273437 7.92589844 15.37046875 7.91429688 16.3984375 7.90234375 C19 8 19 8 21 9 C21.042721 10.66611905 21.04063832 12.33382885 21 14 C20 15 20 15 16.83984375 15.09765625 C14.90818359 15.08025391 14.90818359 15.08025391 12.9375 15.0625 C11.64714844 15.05347656 10.35679687 15.04445313 9.02734375 15.03515625 C8.02832031 15.02355469 7.02929688 15.01195313 6 15 C7.91406662 17.35641524 7.91406662 17.35641524 11.2578125 17.1953125 C12.53398437 17.17210938 13.81015625 17.14890625 15.125 17.125 C16.40632813 17.10695313 17.68765625 17.08890625 19.0078125 17.0703125 C20.48894531 17.03550781 20.48894531 17.03550781 22 17 C22.04241723 19.33294775 22.04092937 21.66702567 22 24 C21 25 21 25 18.59155273 25.11352539 C17.54942627 25.10828857 16.5072998 25.10305176 15.43359375 25.09765625 C14.30888672 25.09443359 13.18417969 25.09121094 12.02539062 25.08789062 C10.84138672 25.07951172 9.65738281 25.07113281 8.4375 25.0625 C7.24962891 25.05798828 6.06175781 25.05347656 4.83789062 25.04882812 C1.89187774 25.03699675 -1.05403681 25.02051287 -4 25 C-3.41527636 16.43077425 -1.70566098 8.52830489 0 0 Z " fill="#F0F1F1" transform="translate(179,89)"/>
<path d="M0 0 C3.13268419 -0.51145864 5.88087838 -0.65561155 9 0 C11.83413813 2.30685661 13.84233132 5.07093682 16 8 C17.31635024 9.35010281 18.63973902 10.69414946 20 12 C20.09087891 10.82630859 20.09087891 10.82630859 20.18359375 9.62890625 C20.26738281 8.61699219 20.35117188 7.60507813 20.4375 6.5625 C20.51871094 5.55316406 20.59992188 4.54382813 20.68359375 3.50390625 C21 1 21 1 22 0 C23.51928038 -0.07179964 25.04167482 -0.08392007 26.5625 -0.0625 C27.38878906 -0.05347656 28.21507812 -0.04445313 29.06640625 -0.03515625 C29.70449219 -0.02355469 30.34257812 -0.01195313 31 0 C30.36069083 3.98024382 29.71246675 7.95898379 29.0625 11.9375 C28.88009766 13.07380859 28.69769531 14.21011719 28.50976562 15.38085938 C28.33251953 16.46044922 28.15527344 17.54003906 27.97265625 18.65234375 C27.81031494 19.65257568 27.64797363 20.65280762 27.48071289 21.68334961 C27 24 27 24 26 25 C21.2481874 26.12315571 21.2481874 26.12315571 18 25 C15.01475729 22.06193785 12.51379949 18.96672655 10.00390625 15.625 C9.34261719 14.75875 8.68132812 13.8925 8 13 C7.67 13 7.34 13 7 13 C6.86722656 13.78246094 6.73445312 14.56492187 6.59765625 15.37109375 C6.42105469 16.38300781 6.24445313 17.39492187 6.0625 18.4375 C5.88847656 19.44683594 5.71445313 20.45617187 5.53515625 21.49609375 C5 24 5 24 4 25 C1.32941149 25.14115161 -1.32432238 25.04247107 -4 25 C-4.33554587 19.51941751 -3.64788245 14.49549542 -2.5625 9.125 C-2.42803467 8.45847412 -2.29356934 7.79194824 -2.1550293 7.10522461 C-1.14280585 2.28561171 -1.14280585 2.28561171 0 0 Z " fill="#F3F4F4" transform="translate(144,89)"/>
<path d="M0 0 C0 0.66 0 1.32 0 2 C1.65 2.33 3.3 2.66 5 3 C5 3.33 5 3.66 5 4 C4.34773438 4.18175781 3.69546875 4.36351562 3.0234375 4.55078125 C-1.95211056 5.98180171 -6.37967982 7.63349454 -11 10 C-11.99 10 -12.98 10 -14 10 C-12.69467452 6.08402356 -11.02734726 5.46169654 -7.5625 3.3125 C-6.07943359 2.37857422 -6.07943359 2.37857422 -4.56640625 1.42578125 C-2 0 -2 0 0 0 Z " fill="#97C07A" transform="translate(118,29)"/>
<path d="M0 0 C0 0.66 0 1.32 0 2 C-0.71027344 2.04898438 -1.42054688 2.09796875 -2.15234375 2.1484375 C-3.53099609 2.26058594 -3.53099609 2.26058594 -4.9375 2.375 C-5.85402344 2.44460937 -6.77054688 2.51421875 -7.71484375 2.5859375 C-8.46894531 2.72257812 -9.22304687 2.85921875 -10 3 C-10.33 3.66 -10.66 4.32 -11 5 C-11.66 4.67 -12.32 4.34 -13 4 C-12 2.0625 -12 2.0625 -10 0 C-6.60967001 -0.92904748 -3.24212603 -1.62106302 0 0 Z " fill="#DEDEDD" transform="translate(171,67)"/>
<path d="M0 0 C0.66 1.32 1.32 2.64 2 4 C-3.625 7 -3.625 7 -7 7 C-5.66667905 3.00003714 -3.5042173 2.16217663 0 0 Z " fill="#B4CCA4" transform="translate(111,32)"/>
<path d="M0 0 C0.99 0 1.98 0 3 0 C3 1.98 3 3.96 3 6 C1.68 6 0.36 6 -1 6 C-0.67 4.02 -0.34 2.04 0 0 Z " fill="#D5D5D4" transform="translate(204,89)"/>
<path d="M0 0 C0.33 0 0.66 0 1 0 C1.56638908 4.81430721 -0.17438373 7.20307814 -3 11 C-3.66 10.34 -4.32 9.68 -5 9 C-3.35 6.03 -1.7 3.06 0 0 Z " fill="#94BA7C" transform="translate(135,65)"/>
<path d="M0 0 C0.66 0 1.32 0 2 0 C2 1.65 2 3.3 2 5 C0.68 5 -0.64 5 -2 5 C-1.34 3.35 -0.68 1.7 0 0 Z " fill="#75A55A" transform="translate(150,53)"/>
<path d="M0 0 C0.33 0 0.66 0 1 0 C0.67 3.3 0.34 6.6 0 10 C-2 7 -2 7 -1.6875 3.875 C-1 1 -1 1 0 0 Z " fill="#BCCCB2" transform="translate(80,71)"/>
<path d="M0 0 C0.66 0 1.32 0 2 0 C2.33 2.97 2.66 5.94 3 9 C0 6 0 6 -0.1875 2.8125 C-0.125625 1.884375 -0.06375 0.95625 0 0 Z " fill="#9ABD83" transform="translate(77,78)"/>
<path d="M0 0 C0.99 0.33 1.98 0.66 3 1 C1.37660195 2.70884005 -0.29319053 4.37446717 -2 6 C-2.66 6 -3.32 6 -4 6 C-2.84826645 3.53199953 -1.95216435 1.95216435 0 0 Z " fill="#EDEEED" transform="translate(86,72)"/>
</svg>
