<?xml version="1.0" encoding="UTF-8"?>
<svg version="1.1" xmlns="http://www.w3.org/2000/svg" width="512" height="512">
<path d="M0 0 C1.23856461 91.04402622 -15.26286592 182.47010699 -88.65576172 274.55419922 C-90.57278771 276.61606408 -92.4087565 278.7454992 -94.25 280.875 C-97.25041955 284.27053653 -100.41735451 287.26726466 -103.875 290.19140625 C-106.25924121 292.22064096 -108.56411081 294.32520285 -110.875 296.4375 C-124.8189433 309 -124.8189433 309 -128 309 C-128.02578125 309.76441406 -128.0515625 310.52882813 -128.078125 311.31640625 C-129.47214278 337.64433291 -142.07356431 362.44229061 -158 383 C-158.70511719 383.91652344 -159.41023438 384.83304687 -160.13671875 385.77734375 C-166.61923584 393.93740685 -173.79623262 401.47996967 -181 409 C-181.75531006 409.79035645 -181.75531006 409.79035645 -182.52587891 410.59667969 C-188.11402277 416.41170487 -193.90575247 421.75101041 -200.21484375 426.7734375 C-203.02808045 429.0224486 -205.76120311 431.3486665 -208.5 433.6875 C-230.285026 451.80906206 -254.38352434 467.04859692 -279 481 C-279.66193359 481.37576172 -280.32386719 481.75152344 -281.00585938 482.13867188 C-291.74819838 488.14829009 -291.74819838 488.14829009 -298 487 C-302.10557659 485.18590802 -304.59617014 482.77744692 -307 479 C-308.53154616 473.48643383 -307.64166079 469.91474926 -305 465 C-302.87109375 462.21875 -302.87109375 462.21875 -300.4375 459.5 C-276.0663665 431.36561057 -259.21940828 393.37486384 -258 356 C-258.8971875 355.56171875 -259.794375 355.1234375 -260.71875 354.671875 C-280.10324635 344.9283868 -296.98645072 330.55081347 -312 315 C-314.43442227 312.55004713 -316.88050516 310.11593373 -319.359375 307.7109375 C-325.39443496 301.81393446 -330.78468895 295.62630274 -336 289 C-336.8146875 288.00226563 -337.629375 287.00453125 -338.46875 285.9765625 C-345.46544741 277.29725195 -351.01521553 267.96956894 -356 258 C-395.21898426 259.27957534 -431.90063553 277.27283132 -461.56640625 302.15234375 C-465.95263113 305.78155519 -469.03551578 308.22090682 -475 308 C-480.21230653 306.40980479 -482.98116952 304.52824572 -486 300 C-487.90447661 296.19104678 -486.89598539 292.03465762 -486 288 C-484.25533412 283.83600681 -482.04419428 280.00815986 -479.75 276.125 C-479.12246826 275.03582275 -478.49493652 273.94664551 -477.84838867 272.82446289 C-471.92431973 262.64481513 -465.59189316 252.75718202 -459 243 C-458.51402344 242.27458008 -458.02804687 241.54916016 -457.52734375 240.80175781 C-448.70302404 227.64342277 -439.1815337 215.14326232 -429 203 C-428.53787109 202.44618652 -428.07574219 201.89237305 -427.59960938 201.32177734 C-421.25522622 193.74884555 -414.67036211 186.49103398 -407.6875 179.5 C-407.04224365 178.85393799 -406.3969873 178.20787598 -405.73217773 177.54223633 C-382.2736634 154.35387763 -354.49206351 136.05132476 -322 129 C-321.08605469 128.79503906 -320.17210937 128.59007812 -319.23046875 128.37890625 C-317.00084902 128.00014423 -314.94603931 127.89921967 -312.6875 127.9375 C-310.8621875 127.9684375 -310.8621875 127.9684375 -309 128 C-308.59140747 127.12275269 -308.59140747 127.12275269 -308.17456055 126.2277832 C-306.21437304 122.50990522 -303.46726613 119.42888864 -300.8125 116.1875 C-299.98395508 115.15786133 -299.98395508 115.15786133 -299.13867188 114.10742188 C-295.82016199 110.03347885 -292.35852709 106.23597092 -288.57861328 102.58520508 C-286.96448327 100.96433496 -285.51049087 99.26970877 -284.0625 97.5 C-281.39311806 94.33317418 -278.47557453 91.68318677 -275.3203125 89.0078125 C-273.08453297 87.07314806 -270.92470759 85.07100053 -268.77026367 83.04663086 C-214.82664554 32.60280745 -140.58485034 10.7820485 -69 2 C-68.03916504 1.87850586 -67.07833008 1.75701172 -66.08837891 1.63183594 C-44.20017174 -1.02632952 -22.00414697 -0.18623301 0 0 Z M-253.375 105.54248047 C-254.87361828 106.8866438 -256.38920737 108.21182202 -257.90625 109.53515625 C-262.32740819 113.41698641 -266.39881295 117.37405115 -270.18359375 121.87890625 C-271.46920577 123.38016932 -272.79993587 124.84333203 -274.16015625 126.27734375 C-285.79420774 138.55457857 -295.64374437 152.4725789 -303.95996094 167.18164062 C-305.01091291 169.01907967 -306.09875327 170.83009461 -307.1953125 172.640625 C-317.95820798 190.68526993 -336.37115042 223.97215538 -332 246 C-328.31126221 255.10916599 -322.46769894 262.86137093 -316.29296875 270.41455078 C-315.07507863 271.90793795 -313.8804648 273.42022117 -312.6875 274.93359375 C-306.57219263 282.46992607 -299.83795003 289.3725151 -293 296.25 C-292.08637695 297.17288818 -291.17275391 298.09577637 -290.23144531 299.04663086 C-268.94779973 320.94375978 -268.94779973 320.94375978 -241.7890625 332.23828125 C-236.92585158 332.12882152 -232.44418896 331.2238489 -227.75 330 C-226.46561035 329.66995972 -226.46561035 329.66995972 -225.15527344 329.33325195 C-210.04388899 325.28349979 -195.66300707 319.3108477 -181.86328125 311.98242188 C-180.0236963 311.01249396 -178.17095504 310.07379829 -176.3125 309.140625 C-156.96088272 299.30199303 -139.48381009 286.32065809 -123.68359375 271.49609375 C-121.39715027 269.36940178 -119.07012916 267.32927439 -116.6875 265.3125 C-113.4277743 262.48203859 -110.61376563 259.43055057 -107.828125 256.13671875 C-105.8831658 253.86344379 -103.85139345 251.68924351 -101.8125 249.5 C-84.8475798 230.60855497 -72.20898756 208.65501105 -61 186 C-60.5968457 185.19578613 -60.19369141 184.39157227 -59.77832031 183.56298828 C-35.74063167 135.10849997 -27.71812662 79.49240566 -26 26 C-106.75245666 25.29041661 -192.79440701 51.03715718 -253.375 105.54248047 Z M-341.5 163.5625 C-342.21905518 163.92746582 -342.93811035 164.29243164 -343.67895508 164.66845703 C-359.9940245 173.06760867 -373.86819802 184.31109185 -387 197 C-387.62229492 197.60038086 -388.24458984 198.20076172 -388.88574219 198.81933594 C-396.8010222 206.49680082 -404.20331663 214.30024528 -411 223 C-411.98578812 224.21036815 -412.97424691 225.41856427 -413.96484375 226.625 C-419.84232363 233.81304215 -425.27018548 240.98929301 -430 249 C-425.12531405 247.43313666 -420.33166306 245.75264334 -415.55883789 243.89624023 C-400.71671319 238.16231924 -385.70675978 234.43062492 -370 232 C-368.6822807 231.79173607 -367.36457207 231.58340454 -366.046875 231.375 C-363.03279485 230.90527322 -360.0176538 230.44608795 -357 230 C-356.58041016 228.29070312 -356.58041016 228.29070312 -356.15234375 226.546875 C-350.81474414 205.26245711 -343.90875262 183.12001293 -332.34667969 164.31030273 C-330.83213572 162.15771026 -330.83213572 162.15771026 -331 160 C-335.05622991 160 -337.96657854 161.75995958 -341.5 163.5625 Z M-168.0625 334.375 C-187.38751891 344.98169327 -208.66324839 351.76874194 -230 357 C-230.08636719 357.64839844 -230.17273438 358.29679687 -230.26171875 358.96484375 C-233.55990015 381.99159649 -238.10344518 405.16963185 -248.36108398 426.22265625 C-248.57192627 426.80917969 -248.78276855 427.39570313 -249 428 C-248.67 428.66 -248.34 429.32 -248 430 C-238.82767318 423.1984377 -229.74273557 416.35184582 -221 409 C-219.93757725 408.1249062 -218.8750732 407.24991111 -217.8125 406.375 C-204.4002651 395.22162717 -191.46959733 382.9995765 -181 369 C-180.60264648 368.47374023 -180.20529297 367.94748047 -179.79589844 367.40527344 C-166.30807469 350.57534308 -166.30807469 350.57534308 -160 331 C-163.17173452 331 -165.32636087 332.81413596 -168.0625 334.375 Z " fill="#000000" transform="translate(512,0)"/>
<path d="M0 0 C12.19209074 10.42311029 21.20604272 24.50763822 22.55859375 40.6953125 C23.34149812 60.38654373 13.55058113 76.19742025 0.76171875 90.20361328 C-4.33827248 95.64555136 -9.60828322 100.50273292 -15.5625 105 C-16.30153564 105.55937256 -17.04057129 106.11874512 -17.80200195 106.69506836 C-46.18110175 127.92149202 -78.78395459 143.40444697 -111.57958984 156.50439453 C-113.75546931 157.37645557 -115.92736751 158.25848599 -118.09619141 159.14794922 C-121.57784803 160.57531726 -125.06857211 161.97797504 -128.5625 163.375 C-129.62605713 163.81352295 -130.68961426 164.2520459 -131.78540039 164.70385742 C-138.12049497 167.19162291 -143.84853397 168.80593509 -150.6875 167.75 C-154.81873401 165.684383 -156.97666088 164.00248217 -158.6875 159.75 C-159.69841766 152.56655301 -158.01910321 146.64394837 -155.28515625 140.0703125 C-154.92916855 139.17746552 -154.57318085 138.28461853 -154.20640564 137.36471558 C-153.07020059 134.52808766 -151.91017982 131.70189313 -150.75 128.875 C-150.00567998 127.01882255 -149.26283062 125.16205466 -148.52148438 123.3046875 C-141.88783906 106.7861833 -134.75191719 90.46784058 -126.75 74.5625 C-126.24476807 73.55767578 -125.73953613 72.55285156 -125.21899414 71.51757812 C-108.88864734 39.37481984 -86.32125739 1.63401342 -50.6875 -11.25 C-31.92963472 -16.50730646 -15.11060337 -11.78044284 0 0 Z M-78.25537109 45.77148438 C-107.27393124 85.52736342 -107.27393124 85.52736342 -121.6875 130.75 C-83.93717509 118.79488136 -26.97815769 93.96737028 -7.5625 56.6875 C-3.84228717 48.62264145 -3.36585147 42.90088839 -6.3125 34.5625 C-10.4966284 25.26443688 -17.97802163 18.87410087 -27.1875 14.5859375 C-48.54110992 7.44582418 -67.16423328 30.79567091 -78.25537109 45.77148438 Z " fill="#000000" transform="translate(158.6875,344.25)"/>
<path d="M0 0 C14.75013157 11.28845727 24.39542063 26.46508633 27 45 C28.52046025 63.2895943 24.37764223 79.73672466 13.0625 94.4375 C1.75764225 107.66612895 -12.68619792 115.62490151 -30 118 C-48.26361768 119.31688023 -64.75284047 114.74713458 -79.25 103.3125 C-93.0682075 91.2644681 -100.54730378 75.27750934 -102.38671875 57.19921875 C-102.95356102 38.68888676 -96.51506236 21.65712128 -84 8 C-62.07393918 -14.65998754 -25.78286906 -17.53494873 0 0 Z M-67.8515625 30.203125 C-74.65958096 39.7947175 -76.27721034 49.31232051 -75 61 C-72.14312507 71.47520809 -66.71830101 80.01345819 -57.3984375 85.6796875 C-56.21121094 86.33324219 -56.21121094 86.33324219 -55 87 C-54.24976563 87.41507812 -53.49953125 87.83015625 -52.7265625 88.2578125 C-44.73081289 92.05645766 -35.69469161 92.38100151 -27.1328125 90.3046875 C-24.61889163 89.37273553 -22.34816011 88.29148806 -20 87 C-19.23171875 86.59910156 -18.4634375 86.19820313 -17.671875 85.78515625 C-9.57876627 81.03664858 -2.89582934 72.7721893 -0.40625 63.6328125 C1.48054896 51.40490387 0.47718973 40.85752052 -6.76171875 30.47265625 C-12.61955354 23.33156354 -20.07360707 18.42648566 -29 16 C-44.61134953 14.58228505 -57.38463711 17.74880872 -67.8515625 30.203125 Z " fill="#000000" transform="translate(383,113)"/>
</svg>
