<?xml version="1.0" encoding="UTF-8"?>
<svg version="1.1" xmlns="http://www.w3.org/2000/svg" width="512" height="512">
<path d="M0 0 C1.72398338 0.40001363 3.44819247 0.79905551 5.17260742 1.19720459 C9.83416148 2.27638542 14.49245776 3.36905945 19.15027642 4.46423364 C24.04171475 5.61186906 28.93607116 6.74692239 33.8301239 7.88334656 C43.10244011 10.03842003 52.37210783 12.20466701 61.6408636 14.37499636 C72.14338258 16.83366171 82.64874585 19.28006027 93.15439284 21.7253195 C111.13316856 25.91018369 129.10993366 30.10358326 147.08396912 34.3087616 C147.84272791 34.48603236 148.60148671 34.66330312 149.3832382 34.84594572 C150.84026485 35.18705992 152.29694529 35.52965711 153.75323546 35.87390196 C157.07192855 36.65601533 160.38915058 37.40209807 163.72743797 38.0988369 C165.49378814 38.4721234 165.49378814 38.4721234 167.29582214 38.85295105 C168.32068316 39.05954944 169.34554419 39.26614782 170.4014616 39.47900677 C172.82299805 40.28393555 172.82299805 40.28393555 174.82299805 43.28393555 C175.27110291 45.35879517 175.27110291 45.35879517 175.55322266 47.7824707 C175.66361877 48.69808777 175.77401489 49.61370483 175.88775635 50.55706787 C175.99915955 51.55232483 176.11056274 52.54758179 176.2253418 53.57299805 C176.34762146 54.61079407 176.46990112 55.64859009 176.59588623 56.71783447 C176.99304363 60.11389941 177.37750467 63.51124608 177.76049805 66.90893555 C178.03033005 69.26197507 178.30026874 71.61500235 178.5703125 73.96801758 C183.38240169 116.20777125 187.10392844 158.75696084 187.82299805 201.28393555 C187.84491211 202.50097168 187.86682617 203.71800781 187.8894043 204.97192383 C189.51558577 310.8769921 189.51558577 310.8769921 163.82299805 347.28393555 C163.21713867 348.16307617 162.6112793 349.0422168 161.98706055 349.94799805 C156.70135452 357.43428372 150.85424542 364.39597689 144.82299805 371.28393555 C144.03924805 372.18112305 143.25549805 373.07831055 142.44799805 374.00268555 C136.08406058 381.10092349 129.36397418 387.8465245 122.63549805 394.59643555 C122.16195892 395.0726535 121.6884198 395.54887146 121.20053101 396.03952026 C115.58335543 401.68076789 109.87028034 407.10836487 103.82299805 412.28393555 C102.21531432 413.73839072 100.6106009 415.1961445 99.01049805 416.65893555 C94.71826187 420.53305435 90.29521131 424.20411102 85.79956055 427.83862305 C83.0708361 430.08033106 80.39317206 432.36757465 77.7253418 434.68066406 C71.20747205 440.33097669 64.53283753 445.6786943 57.65551758 450.88549805 C54.85755491 453.02068725 52.08750069 455.19125142 49.31445312 457.35864258 C40.23674053 464.45189813 31.07160271 471.41543928 21.82299805 478.28393555 C21.06873535 478.84612793 20.31447266 479.40832031 19.53735352 479.98754883 C9.3641297 487.56673655 -0.88025732 495.00563218 -11.42504883 502.06176758 C-12.64722039 502.91435827 -13.83990463 503.81011897 -15.00708008 504.73657227 C-19.4921981 508.25039855 -19.4921981 508.25039855 -22.6496582 508.4050293 C-26.28369302 506.79302313 -29.38907691 504.65598474 -32.61450195 502.34643555 C-33.3211499 501.84990479 -34.02779785 501.35337402 -34.75585938 500.84179688 C-36.90200777 499.33047557 -39.03982061 497.80790016 -41.17700195 496.28393555 C-42.34064221 495.4630242 -43.5046759 494.64267011 -44.66918945 493.82299805 C-60.04986021 482.95742219 -75.10685216 471.67068925 -89.92114258 460.04711914 C-92.2230771 458.24792313 -94.53442225 456.46152193 -96.84887695 454.6784668 C-104.79876497 448.54747986 -112.62539993 442.32704452 -120.2434082 435.7878418 C-122.98068578 433.45149702 -125.7544321 431.17246123 -128.55200195 428.90893555 C-145.21603582 415.30761124 -160.84425691 400.67247103 -176.11450195 385.53393555 C-177.41025146 384.25776367 -177.41025146 384.25776367 -178.73217773 382.95581055 C-183.86807543 377.82683855 -188.59804005 372.51397062 -193.12866211 366.8425293 C-195.245045 364.19894256 -197.42288065 361.61529737 -199.61450195 359.03393555 C-212.97718153 342.61092201 -220.42578599 325.8237394 -225.17700195 305.28393555 C-225.60819336 303.46249023 -225.60819336 303.46249023 -226.0480957 301.60424805 C-230.73515398 279.40750574 -231.7707787 255.90718543 -232.17700195 233.28393555 C-232.19891602 232.15165527 -232.22083008 231.019375 -232.2434082 229.8527832 C-233.16318318 173.6468672 -228.1413783 117.38284897 -221.45373535 61.63146973 C-221.17639407 59.27877884 -220.91415088 56.9247754 -220.65454102 54.57006836 C-220.48775808 53.11268763 -220.32077664 51.65532959 -220.15356445 50.19799805 C-220.01257324 48.93165527 -219.87158203 47.6653125 -219.72631836 46.3605957 C-219.17700195 43.28393555 -219.17700195 43.28393555 -217.17700195 40.28393555 C-214.86038237 39.50415509 -212.68024998 38.91116709 -210.30436707 38.38684082 C-209.5890418 38.2189686 -208.87371654 38.05109637 -208.13671476 37.87813711 C-205.72971879 37.31636685 -203.3191265 36.77194295 -200.90820312 36.22729492 C-199.18494127 35.82881811 -197.46192411 35.4292818 -195.73913574 35.02876282 C-191.04882022 33.94152707 -186.35520261 32.86921598 -181.66087508 31.79945564 C-176.74420756 30.67637587 -171.83069049 29.53968062 -166.91682434 28.40441895 C-157.59184681 26.25223563 -148.26409286 24.1123458 -138.93528873 21.97681761 C-128.37075885 19.55779706 -117.80934501 17.12531213 -107.24819601 14.69158077 C-89.1695159 10.52575346 -71.08854431 6.37000043 -53.00489807 2.2257843 C-52.24085683 2.05049446 -51.47681558 1.87520462 -50.68962157 1.69460297 C-49.21565935 1.35713922 -47.74138104 1.0210526 -46.26676214 0.68647003 C-43.01598976 -0.05288237 -39.77860763 -0.81672515 -36.54598427 -1.63349915 C-23.37526059 -4.92095108 -12.98402892 -3.07706266 0 0 Z M-22.17700195 44.28393555 C-22.17700195 178.26393555 -22.17700195 312.24393555 -22.17700195 450.28393555 C-16.310967 446.95043522 -16.310967 446.95043522 -10.8293457 443.2175293 C-10.0664624 442.65525635 -9.3035791 442.0929834 -8.51757812 441.51367188 C-7.32805542 440.62651489 -7.32805542 440.62651489 -6.11450195 439.72143555 C-5.27959229 439.10228271 -4.44468262 438.48312988 -3.58447266 437.84521484 C3.09041652 432.87534191 9.65803446 427.78212441 16.16674805 422.59741211 C17.83691802 421.27289642 19.51576735 419.96027839 21.19799805 418.65112305 C38.13962372 405.45738803 54.69841486 391.73777785 70.5925293 377.2956543 C72.66487971 375.42654666 74.7681963 373.60173685 76.88549805 371.78393555 C80.6416644 368.51901831 84.11352767 365.01204502 87.60424805 361.4675293 C89.61175572 359.49183073 91.6708935 357.66120625 93.82299805 355.84643555 C97.69701854 352.51493075 101.04388707 348.84184739 104.40893555 345.00268555 C106.51045703 342.63592349 108.67462448 340.34891919 110.86621094 338.06616211 C141.28439527 306.00216812 140.05053167 261.07619637 140.07299805 219.47143555 C140.07400513 218.16691437 140.07501221 216.86239319 140.0760498 215.51834106 C140.07301856 174.68289351 137.37643221 133.98036837 133.03924561 93.38195801 C132.88425334 91.87823121 132.74535721 90.37281167 132.61700439 88.86657715 C132.50651764 87.6679303 132.50651764 87.6679303 132.39379883 86.44506836 C132.33201447 85.72055481 132.2702301 84.99604126 132.20657349 84.24957275 C131.89305499 81.9718615 131.89305499 81.9718615 129.82299805 79.28393555 C127.12665724 78.28013235 127.12665724 78.28013235 123.85667419 77.59443665 C122.58483276 77.29581726 121.31299133 76.99719788 120.00260925 76.68952942 C118.5852862 76.36961827 117.16791074 76.04993919 115.75048828 75.73046875 C114.26391093 75.38623375 112.77757784 75.04094247 111.29147339 74.69467163 C107.25070662 73.75634888 103.20665381 72.83297151 99.16184878 71.9122355 C94.93627334 70.9477687 90.71380633 69.96988211 86.49098206 68.99345398 C79.40007016 67.35579817 72.30721573 65.72680726 65.21289062 64.10400391 C55.19511178 61.81246613 45.18078431 59.50613294 35.16717613 57.19644797 C21.76880846 54.10675295 8.36933941 51.02176592 -5.03386307 47.95310593 C-6.48966839 47.6196724 -7.94539066 47.28587602 -9.40102577 46.95170021 C-11.37966231 46.49757179 -13.35865164 46.04498125 -15.33766174 45.59248352 C-16.44766824 45.33827794 -17.55767473 45.08407236 -18.70131779 44.82216358 C-20.91761158 44.24852836 -20.91761158 44.24852836 -22.17700195 44.28393555 Z " fill="#000000" transform="translate(278.177001953125,3.716064453125)"/>
</svg>
