<?xml version="1.0" encoding="UTF-8"?>
<svg version="1.1" xmlns="http://www.w3.org/2000/svg" width="512" height="512">
<path d="M0 0 C10.2623968 2.54050691 19.94617063 8.02502558 29.45153809 12.58958435 C30.07075512 12.88609013 30.68997215 13.1825959 31.32795334 13.4880867 C50.92650278 22.92316678 65.08656767 31.79786701 72.99890137 52.94261169 C74.36467676 56.33804046 76.17421268 59.14789322 78.33410645 62.0868988 C79.13903809 63.77708435 79.13903809 63.77708435 78.89904785 65.85203552 C77.86976545 68.45913214 76.19651215 69.91872068 74.13903809 71.77708435 C75.58887681 75.10256019 77.40226382 77.28920274 79.96151161 79.84565353 C80.7631913 80.65131531 81.56487098 81.4569771 82.39084399 82.28705287 C83.27604546 83.16642866 84.16124694 84.04580446 85.07327271 84.951828 C86.02000541 85.89943278 86.96629853 86.84747691 87.91218889 87.79592252 C90.51414807 90.40235887 93.12231102 93.00250937 95.73151398 95.60169148 C98.54357185 98.40512252 101.34985797 101.21432059 104.15684509 104.02282715 C109.02141988 108.88845127 113.88964679 113.75039648 118.76036453 118.60987091 C125.8026216 125.63588255 132.83935777 132.66740212 139.87475328 139.70028368 C151.28901845 151.11017024 162.70774397 162.51558216 174.12927246 173.91819763 C185.2250379 184.99560855 196.31870344 196.07511549 207.4095459 207.15745544 C208.09304244 207.84042654 208.77653898 208.52339763 209.48074754 209.22706482 C212.90959296 212.65330019 216.33839709 216.0795769 219.76718068 219.50587416 C248.21806577 247.9360216 276.67618909 276.35891487 305.13903809 304.77708435 C306.12903809 304.11708435 307.11903809 303.45708435 308.13903809 302.77708435 C322.5365728 299.85056213 340.98033774 298.04333049 353.75903654 306.43378854 C362.82726571 313.1389332 370.53183413 321.47093129 378.18483162 329.70385647 C381.76869035 333.51636418 385.46466291 337.2173257 389.14819336 340.93315125 C395.29420148 347.16309359 401.36544622 353.45818804 407.38708496 359.80833435 C415.88816323 368.77300414 424.51559248 377.6076884 433.1724062 386.42170095 C444.75741387 398.23084503 456.31135917 410.07538124 467.70779419 422.0668602 C468.93916112 423.3593411 470.17477283 424.64779262 471.41481018 425.93195724 C473.10039108 427.67969852 474.76941585 429.441727 476.43457031 431.20890808 C477.18111618 431.97351164 477.18111618 431.97351164 477.94274378 432.75356174 C481.14746122 436.205552 481.14746122 436.205552 481.10736561 438.92614651 C480.04796778 440.95116333 478.96112639 442.33779772 477.3502655 443.96026611 C476.46076706 444.86678925 476.46076706 444.86678925 475.55329895 445.79162598 C474.89927597 446.44271835 474.24525299 447.09381073 473.57141113 447.76463318 C472.88518677 448.45932709 472.1989624 449.154021 471.49194336 449.86976624 C469.21934928 452.16577753 466.93570143 454.45039934 464.65075684 456.7341156 C463.06963372 458.32233591 461.48881183 459.91085615 459.90827942 461.49966431 C456.59365373 464.82774465 453.27313702 468.14981508 449.94885254 471.46824646 C445.68115084 475.73004257 441.4320025 480.00982472 437.18750286 484.29471302 C433.92854089 487.57946655 430.65823766 490.85274052 427.38453102 494.1227932 C425.81243973 495.69658284 424.24435158 497.27438154 422.68030357 498.85616493 C420.49682062 501.06167351 418.29818232 503.25085584 416.09484863 505.43650818 C415.1229232 506.42832848 415.1229232 506.42832848 414.13136292 507.44018555 C413.52990448 508.03043518 412.92844604 508.62068481 412.3087616 509.2288208 C411.79016917 509.74812573 411.27157675 510.26743067 410.7372694 510.80247211 C409.13903809 511.77708435 409.13903809 511.77708435 407.28656864 511.74303913 C404.2055428 510.35720011 402.01005378 508.18649901 399.60882568 505.87007141 C398.78903044 505.09539668 398.78903044 505.09539668 397.95267367 504.30507195 C396.11985594 502.56865854 394.29783321 500.82135123 392.47595215 499.07347107 C391.16538559 497.82590413 389.85445844 496.57871589 388.54319763 495.33187866 C376.52983736 483.88405549 364.64261744 472.30372712 352.78737259 460.69248772 C344.03935277 452.12837219 335.23470551 443.63275853 326.34381509 435.21701419 C320.0795162 429.27632343 313.89370223 423.26036128 307.75773978 417.18724835 C304.10074966 413.57210391 300.41936828 409.99685497 296.64783478 406.50104904 C271.14032523 382.78414908 271.14032523 382.78414908 270.1443727 364.44301188 C269.68196715 342.46269075 269.68196715 342.46269075 274.13903809 335.77708435 C263.90903809 325.54708435 253.67903809 315.31708435 243.13903809 304.77708435 C239.69435637 306.49942521 238.06085135 307.60597791 235.4452858 310.22474098 C234.72322551 310.94281917 234.00116522 311.66089736 233.25722432 312.4007355 C232.07823477 313.58846357 232.07823477 313.58846357 230.87542725 314.80018616 C230.03488131 315.63902324 229.19433538 316.47786032 228.32831836 317.34211671 C225.99637915 319.67132926 223.66901615 322.00495043 221.34346271 324.34052849 C218.8345149 326.85810703 216.31979629 329.36990951 213.80577087 331.88241577 C209.4508884 336.23624915 205.09968501 340.59373166 200.75095367 344.95370865 C194.46340178 351.25750933 188.17033953 357.55578516 181.87591538 363.85272293 C171.66397133 374.06904505 161.45650232 384.28982624 151.25183105 394.51341248 C141.33848336 404.44511605 131.42303886 414.37471849 121.50476074 424.30149841 C120.58783594 425.21921138 120.58783594 425.21921138 119.65238741 426.15546401 C116.58576975 429.22469173 113.51911075 432.29387814 110.4524312 435.36304402 C85.00822133 460.82798991 59.57126683 486.30017301 34.13903809 511.77708435 C30.03458956 509.8876003 27.22762459 507.13335884 24.08532715 503.95042419 C23.19199928 503.05753441 23.19199928 503.05753441 22.28062439 502.14660645 C20.31719166 500.18178259 18.36093436 498.20997396 16.40466309 496.23802185 C15.04318169 494.87280956 13.68125748 493.50803874 12.31890869 492.14369202 C8.73719985 488.55435277 5.16153819 484.95904755 1.58709717 481.36247253 C-2.06253312 477.69237116 -5.71784283 474.02793607 -9.37268066 470.36302185 C-16.54101521 463.17324783 -23.70297491 455.9771592 -30.86096191 448.77708435 C-29.46720656 445.63408682 -27.84027704 443.50734048 -25.41330528 441.08333206 C-24.69522709 440.36127177 -23.9771489 439.63921149 -23.23731077 438.89527059 C-22.44549205 438.10927755 -21.65367333 437.32328452 -20.83786011 436.51347351 C-19.99902302 435.67292758 -19.16018594 434.83238164 -18.29592955 433.96636462 C-15.96671701 431.63442541 -13.63309584 429.30706242 -11.29751778 426.98150897 C-8.77993923 424.47256117 -6.26813675 421.95784255 -3.75563049 419.44381714 C0.59820289 415.08893467 4.9556854 410.73773127 9.31566238 406.38899994 C15.61946306 400.10144804 21.9177389 393.8083858 28.21467666 387.51396164 C38.43099879 377.3020176 48.65177997 367.09454858 58.87536621 356.88987732 C68.80706978 346.97652962 78.73667222 337.06108512 88.66345215 327.14280701 C89.27526079 326.53152381 89.88706944 325.92024061 90.51741774 325.29043368 C93.58664546 322.22381602 96.65583188 319.15715702 99.72499776 316.09047747 C125.18994364 290.6462676 150.66212675 265.2093131 176.13903809 239.77708435 C174.35065846 235.93341568 171.91395712 233.27694071 168.92526245 230.32279968 C168.38860824 229.78443662 167.85195403 229.24607357 167.29903758 228.69139647 C165.49960991 226.88867459 163.69312723 225.093194 161.88659668 223.29759216 C160.59524815 222.00680776 159.30433983 220.71558283 158.01383972 219.4239502 C154.50820404 215.91774006 150.99643058 212.41773596 147.4835391 208.91879749 C143.81375494 205.26150523 140.1496236 201.59855863 136.4848938 197.936203 C129.54388851 191.00141701 122.59780014 184.07174556 115.64988005 177.14388824 C107.74036238 169.25671557 99.83651451 161.3638716 91.93314242 153.47054148 C75.6747507 137.23306193 59.40923666 121.00273263 43.13903809 104.77708435 C40.87241612 105.84072458 39.31814955 106.57558395 37.63903809 108.46458435 C37.14403809 108.89770935 36.64903809 109.33083435 36.13903809 109.77708435 C32.19066201 109.33627955 28.96172159 107.09334661 25.61560059 105.1013031 C24.99180511 104.73487198 24.36800964 104.36844086 23.72531128 103.99090576 C22.40773664 103.21567721 21.09157165 102.43804849 19.7767334 101.65818787 C17.78074445 100.47449185 15.78065573 99.29800101 13.77966309 98.12278748 C12.49556054 97.36604733 11.21169855 96.60889881 9.92810059 95.8513031 C9.33727692 95.50323105 8.74645325 95.155159 8.13772583 94.79653931 C6.46394786 93.80265841 4.80130078 92.79010688 3.13903809 91.77708435 C2.14815186 91.29014099 1.15726563 90.80319763 0.13635254 90.30149841 C-4.64945924 86.27076665 -6.88578935 80.85337592 -9.60705566 75.3122406 C-10.22765036 74.073904 -10.84925412 72.83607264 -11.47181702 71.59872437 C-12.76869817 69.01222001 -14.05410465 66.420423 -15.3314209 63.82420349 C-16.96760877 60.50054713 -18.63036847 57.19105567 -20.30172634 53.88497257 C-21.58770946 51.33443 -22.86007766 48.77728572 -24.1283741 46.21790886 C-24.73638118 44.99472408 -25.34842526 43.7735372 -25.9645977 42.55444527 C-26.82317291 40.85038991 -27.66174064 39.13629848 -28.49938965 37.42185974 C-28.98093002 36.45019363 -29.4624704 35.47852753 -29.95860291 34.47741699 C-30.99929278 31.36312567 -30.92045964 29.8601648 -29.86096191 26.77708435 C-27.99030392 24.48298123 -26.14833353 22.43256253 -24.06799316 20.34739685 C-23.48434494 19.7528067 -22.90069672 19.15821655 -22.29936218 18.54560852 C-21.06460395 17.29501385 -19.82450059 16.04967707 -18.57946777 14.80931091 C-16.67785457 12.90647982 -14.80746833 10.97623253 -12.93713379 9.04270935 C-11.73254915 7.82998569 -10.52622501 6.61898685 -9.31799316 5.40989685 C-8.76150589 4.8298288 -8.20501862 4.24976074 -7.63166809 3.65211487 C-3.60575633 -0.2809473 -3.60575633 -0.2809473 0 0 Z " fill="#000000" transform="translate(30.8609619140625,0.2229156494140625)"/>
<path d="M0 0 C-4.2492875 5.0743445 -8.69105485 9.83009549 -13.38232422 14.49584961 C-14.09521103 15.20888245 -14.80809784 15.92191528 -15.54258728 16.65655518 C-17.87758914 18.99086557 -20.21610295 21.3216231 -22.5546875 23.65234375 C-24.18300884 25.27879819 -25.81110818 26.90547491 -27.43899536 28.53236389 C-31.70779016 32.79735497 -35.9795804 37.05933336 -40.25201416 41.32067871 C-44.61774903 45.67615322 -48.98062671 50.03448773 -53.34375 54.39257812 C-61.89304882 62.93117747 -70.44551677 71.46659493 -79 80 C-76.96110127 87.83066337 -74.58285862 95.49725733 -71.98828125 103.16015625 C-71.61519333 104.27184677 -71.24210541 105.38353729 -70.85771179 106.52891541 C-69.6789078 110.04110463 -68.49619032 113.55195482 -67.3125 117.0625 C-65.7426844 121.71891462 -64.1767878 126.37661998 -62.61328125 131.03515625 C-62.25083817 132.10588882 -61.88839508 133.1766214 -61.51496887 134.27980042 C-61.18429916 135.26520309 -60.85362946 136.25060577 -60.51293945 137.26586914 C-60.21998489 138.13425919 -59.92703033 139.00264923 -59.62519836 139.89735413 C-59 142 -59 142 -59 144 C-58.01929787 144.25380684 -58.01929787 144.25380684 -57.01878357 144.51274109 C-49.86839119 146.4073165 -42.89728301 148.66017569 -35.91015625 151.08203125 C-33.64021432 151.85682435 -31.37002479 152.63089236 -29.09960938 153.40429688 C-25.55957283 154.61328864 -22.02134407 155.8267732 -18.48706055 157.05249023 C-15.0492534 158.24263704 -11.60548486 159.41386802 -8.16015625 160.58203125 C-7.09974625 160.95479691 -6.03933624 161.32756256 -4.9467926 161.71162415 C-3.96154099 162.04244492 -2.97628937 162.37326569 -1.96118164 162.71411133 C-1.09723282 163.01150711 -0.233284 163.30890289 0.65684509 163.61531067 C3.58684203 164.09634526 4.47605082 163.49236527 7 162 C8.73919727 160.55230504 8.73919727 160.55230504 10.40423584 158.83627319 C11.05762436 158.185634 11.71101288 157.53499481 12.38420105 156.86463928 C13.08982681 156.15182297 13.79545258 155.43900665 14.52246094 154.70458984 C15.27406998 153.95327286 16.02567902 153.20195587 16.80006409 152.4278717 C19.28293771 149.94360487 21.7586523 147.45232905 24.234375 144.9609375 C25.95458084 143.23700151 27.6752288 141.51350659 29.39630127 139.79043579 C33.92494332 135.25415749 38.44754715 130.71190506 42.96893311 126.168396 C47.58374014 121.53313047 52.20421396 116.90352137 56.82421875 112.2734375 C65.88837732 103.18782914 74.9463628 94.09609212 84 85 C86.13955257 88.20932886 86.73179063 90.50963319 87.5625 94.25 C87.81128906 95.34828125 88.06007813 96.4465625 88.31640625 97.578125 C91.87270871 115.37995901 92.00719854 137.45569365 87 155 C86.81727539 155.67643555 86.63455078 156.35287109 86.44628906 157.04980469 C78.11603605 187.32049422 58.40170431 216.01445981 31 232 C30.30036133 232.40943848 29.60072266 232.81887695 28.87988281 233.24072266 C17.69878109 239.66997596 6.43772024 244.58876157 -6 248 C-7.17433594 248.33902344 -8.34867188 248.67804688 -9.55859375 249.02734375 C-18.97081232 251.26442089 -28.44321079 251.31109824 -38.0625 251.375 C-39.07440399 251.38705475 -39.07440399 251.38705475 -40.10675049 251.39935303 C-53.08368069 251.516447 -65.24750408 249.5598376 -77.5625 245.4375 C-78.20767578 245.22931641 -78.85285156 245.02113281 -79.51757812 244.80664062 C-81.34811626 244.21380645 -83.17419824 243.60726447 -85 243 C-86.14339844 242.61972656 -87.28679687 242.23945313 -88.46484375 241.84765625 C-89.30144531 241.56792969 -90.13804687 241.28820312 -91 241 C-91.99 241.99 -92.98 242.98 -94 244 C-98.17615799 242.36256066 -100.9648153 239.30218208 -104.05371094 236.17333984 C-104.64926285 235.57807999 -105.24481476 234.98282013 -105.8584137 234.36952209 C-107.82184643 232.40469823 -109.77810373 230.43288961 -111.734375 228.4609375 C-113.0958564 227.09572521 -114.45778061 225.73095439 -115.82012939 224.36660767 C-119.40183824 220.77726841 -122.9774999 217.1819632 -126.55194092 213.58538818 C-130.20157121 209.91528681 -133.85688092 206.25085171 -137.51171875 202.5859375 C-144.68005329 195.39616348 -151.842013 188.20007484 -159 181 C-158 179 -157 177 -156 175 C-156.84959072 172.35250778 -157.76276202 169.78325747 -158.75 167.1875 C-167.28663704 143.9512024 -169.94997324 115.11269342 -163 91 C-162.72591309 89.98752197 -162.72591309 89.98752197 -162.44628906 88.95458984 C-154.11731398 58.68170586 -134.40348279 29.98657772 -107 14 C-105.95054199 13.38584229 -105.95054199 13.38584229 -104.87988281 12.75927734 C-93.70085577 6.331217 -82.43814556 1.40415475 -70 -2 C-68.8140625 -2.33902344 -67.628125 -2.67804688 -66.40625 -3.02734375 C-45.77682235 -7.89319788 -19.95223284 -6.98479993 0 0 Z " fill="#000000" transform="translate(422,5)"/>
</svg>
